# xmcd CD Database Entry
#
# Track frame offsets:
# 150
# 17942
# 48017
# 69777
# 95317
# 124945
# 143326
# 162922
# 180008
# 237553
# 259317
# 299333
# 314895
#
# Disc length: 4395 seconds
#
# Revision: 1
# Processed by: cddbd v1.4PL0 Copyright (c) Steve Scherf et al.
# Submitted via: tcd 2.0b
#
DISCID=b011290d
DTITLE=Mixed/Old School Rap
DYEAR=1900
DGENRE=
TTITLE0=The Mission
TTITLE1=Sunny Fresh 
TTITLE2=Get Up
TTITLE3=Doo Doo Brown
TTITLE4=Champion Lover
TTITLE5=Just a Friend
TTITLE6=Say No Go
TTITLE7=Work It
TTITLE8=I Wish
TTITLE9=Get Up (Remix)
TTITLE10=dowatchalike
TTITLE11=Me,Myself,& I
TTITLE12=Mixed Snoop Dogg
EXTD=
EXTT0=
EXTT1=
EXTT2=
EXTT3=
EXTT4=
EXTT5=
EXTT6=
EXTT7=
EXTT8=
EXTT9=
EXTT10=
EXTT11=
EXTT12=
PLAYORDER=
